ffmpeg version 3.4.8-0ubuntu0.2 Copyright (c) 2000-2020 the FFmpeg developers
  built with gcc 7 (Ubuntu 7.5.0-3ubuntu1~18.04)
  configuration: --prefix=/usr --extra-version=0ubuntu0.2 --toolchain=hardened --libdir=/usr/lib/x86_64-linux-gnu --incdir=/usr/include/x86_64-linux-gnu --enable-gpl --disable-stripping --enable-avresample --enable-avisynth --enable-gnutls --enable-ladspa --enable-libass --enable-libbluray --enable-libbs2b --enable-libcaca --enable-libcdio --enable-libflite --enable-libfontconfig --enable-libfreetype --enable-libfribidi --enable-libgme --enable-libgsm --enable-libmp3lame --enable-libmysofa --enable-libopenjpeg --enable-libopenmpt --enable-libopus --enable-libpulse --enable-librubberband --enable-librsvg --enable-libshine --enable-libsnappy --enable-libsoxr --enable-libspeex --enable-libssh --enable-libtheora --enable-libtwolame --enable-libvorbis --enable-libvpx --enable-libwavpack --enable-libwebp --enable-libx265 --enable-libxml2 --enable-libxvid --enable-libzmq --enable-libzvbi --enable-omx --enable-openal --enable-opengl --enable-sdl2 --enable-libdc1394 --enable-libdrm --enable-libiec61883 --enable-chromaprint --enable-frei0r --enable-libopencv --enable-libx264 --enable-shared
  libavutil      55. 78.100 / 55. 78.100
  libavcodec     57.107.100 / 57.107.100
  libavformat    57. 83.100 / 57. 83.100
  libavdevice    57. 10.100 / 57. 10.100
  libavfilter     6.107.100 /  6.107.100
  libavresample   3.  7.  0 /  3.  7.  0
  libswscale      4.  8.100 /  4.  8.100
  libswresample   2.  9.100 /  2.  9.100
  libpostproc    54.  7.100 / 54.  7.100
[rawvideo @ 0x55712db57a20] Estimating duration from bitrate, this may be inaccurate
Input #0, rawvideo, from '../../SVC-Encoder-20220109T061506Z-001/SVC-Encoder/Dataset/RollerCoaster/6f_2x2/tile_yuv/f5_t2_480x480.yuv':
  Duration: 00:00:10.00, start: 0.000000, bitrate: 82944 kb/s
    Stream #0:0: Video: rawvideo (I420 / 0x30323449), yuv420p, 480x480, 82944 kb/s, 30 tbr, 30 tbn, 30 tbc
Stream mapping:
  Stream #0:0 -> #0:0 (rawvideo (native) -> h264 (libx264))
Press [q] to stop, [?] for help
[libx264 @ 0x55712db64c60] using cpu capabilities: MMX2 SSE2Fast LZCNT SSSE3 SSE4.2 AVX
[libx264 @ 0x55712db64c60] profile High, level 3.0
Output #0, rawvideo, to 'RollerCoaster_f5_t2_480x480_x264_QP_28.h264':
  Metadata:
    encoder         : Lavf57.83.100
    Stream #0:0: Video: h264 (libx264), yuv420p, 480x480, q=-1--1, 30 fps, 30 tbn, 30 tbc
    Metadata:
      encoder         : Lavc57.107.100 libx264
    Side data:
      cpb: bitrate max/min/avg: 0/0/0 buffer size: 0 vbv_delay: -1
frame=  106 fps=0.0 q=34.0 PSNR=Y:nan U:nan V:nan *:nan size=     103kB time=00:00:02.10 bitrate= 401.8kbits/s speed=4.19x    frame=  176 fps=174 q=34.0 PSNR=Y:nan U:nan V:nan *:nan size=     204kB time=00:00:04.43 bitrate= 377.3kbits/s speed=4.37x    frame=  248 fps=163 q=34.0 PSNR=Y:nan U:nan V:nan *:nan size=     256kB time=00:00:06.83 bitrate= 306.9kbits/s speed= 4.5x    frame=  300 fps=143 q=34.0 LPSNR=Y:inf U:inf V:inf *:inf size=     436kB time=00:00:09.93 bitrate= 360.0kbits/s speed=4.73x    
video:436kB audio:0kB subtitle:0kB other streams:0kB global headers:0kB muxing overhead: 0.000000%
[libx264 @ 0x55712db64c60] frame I:2     Avg QP:27.05  size: 20970  PSNR Mean Y:39.25 U:44.93 V:47.93 Avg:40.59 Global:40.53
[libx264 @ 0x55712db64c60] frame P:76    Avg QP:29.02  size:  3705  PSNR Mean Y:37.27 U:44.39 V:47.23 Avg:38.72 Global:38.69
[libx264 @ 0x55712db64c60] frame B:222   Avg QP:33.58  size:   556  PSNR Mean Y:36.95 U:44.21 V:47.23 Avg:38.42 Global:38.40
[libx264 @ 0x55712db64c60] consecutive B-frames:  1.3%  0.0%  0.0% 98.7%
[libx264 @ 0x55712db64c60] mb I  I16..4:  8.2% 81.8% 10.0%
[libx264 @ 0x55712db64c60] mb P  I16..4:  1.1%  3.3%  0.4%  P16..4: 41.8% 17.8%  6.9%  0.0%  0.0%    skip:28.7%
[libx264 @ 0x55712db64c60] mb B  I16..4:  0.0%  0.0%  0.0%  B16..8: 32.0%  2.5%  0.5%  direct: 0.2%  skip:64.8%  L0:33.4% L1:65.3% BI: 1.3%
[libx264 @ 0x55712db64c60] 8x8 transform intra:72.7% inter:69.7%
[libx264 @ 0x55712db64c60] coded y,uvDC,uvAC intra: 68.0% 64.2% 17.6% inter: 8.3% 4.1% 0.0%
[libx264 @ 0x55712db64c60] i16 v,h,dc,p:  7% 65% 16% 12%
[libx264 @ 0x55712db64c60] i8 v,h,dc,ddl,ddr,vr,hd,vl,hu:  6% 29% 16%  8%  9% 11%  6%  5% 11%
[libx264 @ 0x55712db64c60] i4 v,h,dc,ddl,ddr,vr,hd,vl,hu:  7% 32% 20%  5% 10% 12%  5%  3%  6%
[libx264 @ 0x55712db64c60] i8c dc,h,v,p: 41% 38%  9% 12%
[libx264 @ 0x55712db64c60] Weighted P-Frames: Y:1.3% UV:1.3%
[libx264 @ 0x55712db64c60] ref P L0: 62.1% 20.0% 12.5%  5.2%  0.1%
[libx264 @ 0x55712db64c60] ref B L0: 91.9%  7.0%  1.2%
[libx264 @ 0x55712db64c60] ref B L1: 91.4%  8.6%
[libx264 @ 0x55712db64c60] PSNR Mean Y:37.049 U:44.260 V:47.233 Avg:38.509 Global:38.484 kb/s:357.56
